{"glyphs":{"0":{"ha":908,"x_min":0,"x_max":0,"o":"m 63 314 b 428 -22 63 100 185 -12 l 428 156 b 321 274 357 163 321 203 l 321 828 b 428 944 321 897 357 936 l 428 1124 b 63 817 185 1117 63 1014 z m 583 274 b 474 156 583 201 547 163 l 474 -22 b 847 308 722 -17 847 93 l 847 811 b 474 1125 847 1018 722 1124 l 474 944 b 583 828 547 938 583 899 z "},"1":{"ha":507,"x_min":0,"x_max":0,"o":"m 17 815 l 186 815 l 186 0 l 438 0 l 438 1100 l 272 1100 b 17 953 251 994 174 953 z "},"2":{"ha":872,"x_min":0,"x_max":0,"o":"m 54 0 l 789 0 l 789 185 l 54 185 z m 585 471 b 808 847 742 549 808 668 b 460 1122 808 1031 692 1122 b 75 758 204 1122 76 1001 l 322 758 l 326 815 b 465 947 326 910 371 947 b 574 800 538 947 574 899 b 346 539 574 700 503 622 b 69 225 207 465 118 360 l 358 225 b 585 471 376 321 453 403 z "},"3":{"ha":833,"x_min":0,"x_max":0,"o":"m 385 1121 b 56 781 165 1113 56 999 l 294 781 l 294 835 b 385 936 294 894 325 929 z m 49 340 b 393 -21 51 111 167 -10 l 393 163 b 290 340 325 168 290 228 z m 776 319 b 636 574 774 442 726 526 b 747 801 710 625 747 701 b 433 1121 747 1011 643 1117 l 433 936 b 521 813 492 929 521 888 b 364 661 521 707 469 661 l 294 661 l 294 481 l 374 481 b 547 300 496 481 547 422 b 435 163 547 215 510 169 l 435 -21 b 776 319 674 -17 776 96 z "},"4":{"ha":858,"x_min":0,"x_max":0,"o":"m 24 379 l 24 215 l 406 215 l 406 385 l 231 385 l 406 683 l 406 1024 z m 447 1093 l 447 0 l 686 0 l 686 215 l 840 215 l 840 385 l 686 385 l 686 1100 l 453 1100 z "},"5":{"ha":829,"x_min":0,"x_max":0,"o":"m 285 358 l 60 358 b 406 -22 61 104 176 -22 l 406 154 b 285 288 325 157 285 201 z m 447 -21 b 767 274 660 -7 767 92 l 767 490 b 447 761 767 669 671 757 l 447 589 b 536 500 507 583 536 554 l 536 292 b 447 156 536 210 507 165 z m 406 757 b 285 693 356 750 318 726 l 293 915 l 735 915 l 735 1100 l 92 1100 l 64 499 l 276 490 b 406 589 292 547 335 581 z "},"6":{"ha":885,"x_min":0,"x_max":0,"o":"m 569 774 l 818 774 l 818 833 b 471 1124 818 1026 711 1119 l 471 940 b 569 847 539 933 568 903 z m 313 456 b 474 519 333 504 385 519 b 574 440 540 519 574 493 l 574 269 b 460 158 574 199 536 163 l 460 -22 b 824 293 703 -14 824 92 l 824 458 b 529 692 824 621 731 692 b 313 619 444 692 372 668 l 313 840 b 432 942 313 903 353 936 l 432 1124 b 63 840 186 1119 63 1025 l 63 299 b 422 -22 63 81 182 -17 l 422 158 b 313 265 344 168 313 203 z "},"7":{"ha":736,"x_min":0,"x_max":0,"o":"m 713 915 l 713 1100 l 49 1100 l 49 915 z m 168 0 l 415 0 l 701 883 l 460 883 z "},"8":{"ha":843,"x_min":0,"x_max":0,"o":"m 786 319 b 644 574 782 443 735 528 b 756 801 718 624 756 700 b 440 1121 756 1010 650 1117 l 440 936 l 444 935 b 529 813 496 925 529 885 b 444 668 529 736 501 688 l 444 475 b 554 308 518 457 554 401 b 444 163 554 218 522 169 l 444 -21 b 786 319 679 -17 786 96 z m 57 319 b 399 -21 57 97 164 -17 l 399 163 b 289 308 321 169 289 218 b 403 475 289 403 326 458 l 403 668 b 314 813 343 686 314 733 b 403 936 314 889 343 929 l 403 1121 b 86 801 192 1117 86 1010 b 197 574 86 701 124 625 b 57 319 108 528 61 443 z "},"9":{"ha":885,"x_min":0,"x_max":0,"o":"m 310 329 l 61 329 l 61 268 b 415 -22 61 78 169 -17 l 415 163 b 310 257 347 168 311 200 z m 574 646 b 413 581 550 600 501 581 b 311 661 344 581 311 607 l 311 832 b 425 943 311 906 349 942 l 425 1124 b 61 808 182 1117 61 1013 l 61 643 b 356 408 61 476 156 408 b 574 482 438 408 511 433 l 574 261 b 454 163 572 199 532 165 l 454 -22 b 822 263 700 -17 822 78 l 822 803 b 465 1124 822 1015 703 1119 l 465 942 b 574 835 538 935 574 899 z "}," ":{"ha":469,"x_min":0,"x_max":0,"o":""},"!":{"ha":390,"x_min":0,"x_max":0,"o":"m 72 0 l 318 0 l 318 199 l 72 199 z m 118 310 l 271 310 l 326 1100 l 63 1100 z "},"\"":{"ha":561,"x_min":0,"x_max":0,"o":"m 311 935 l 342 706 l 467 706 l 497 932 l 497 1129 l 311 1129 z m 67 935 l 97 706 l 225 706 l 256 932 l 256 1129 l 67 1129 z "},"#":{"ha":749,"x_min":0,"x_max":0,"o":"m 415 613 l 415 619 l 299 619 l 336 729 l 336 725 l 453 725 z m 351 1043 l 276 822 l 276 828 l 128 828 l 92 725 l 240 725 l 206 614 l 206 619 l 67 619 l 31 515 l 171 515 l 97 300 l 190 300 l 267 518 l 267 515 l 381 515 l 308 300 l 401 300 l 476 518 l 476 515 l 619 515 l 654 619 l 508 619 l 546 729 l 546 725 l 682 725 l 717 828 l 581 828 l 651 1043 l 561 1043 l 485 822 l 485 828 l 371 828 l 444 1043 z "},"$":{"ha":675,"x_min":0,"x_max":0,"o":"m 633 765 b 404 1007 633 910 557 990 l 404 853 b 444 765 431 838 444 808 z m 35 401 b 279 136 35 244 117 156 l 279 289 b 215 401 239 304 218 342 z m 367 38 l 367 1101 l 314 1101 l 314 38 z m 54 794 b 156 613 54 715 94 653 l 279 522 l 279 725 b 238 792 251 744 238 767 b 279 860 238 824 247 847 l 279 1007 b 54 794 129 993 54 922 z m 404 433 b 456 346 436 418 456 390 b 404 285 456 314 439 294 l 404 136 b 639 349 561 149 639 219 b 404 633 639 469 560 529 z "},"%":{"ha":1200,"x_min":0,"x_max":0,"o":"m 969 158 b 919 107 969 131 953 114 l 919 -22 b 1149 188 1069 -12 1149 54 l 1149 342 b 919 538 1149 472 1046 531 l 919 406 b 969 364 949 401 969 385 z m 53 774 b 285 561 53 639 131 568 l 285 694 b 229 744 251 701 229 718 l 229 953 b 285 990 229 974 251 986 l 285 1122 b 53 929 128 1117 53 1046 z m 375 744 b 325 694 375 715 358 699 l 325 561 b 557 769 479 568 557 638 l 557 925 b 325 1124 557 1050 458 1119 l 325 990 b 375 953 358 986 375 974 z m 713 488 b 643 344 667 456 643 407 l 643 189 b 879 -22 643 54 722 -17 l 879 107 b 822 158 844 113 822 132 l 822 365 b 879 406 822 386 844 401 l 879 538 b 713 488 810 533 754 517 z m 135 0 l 285 0 l 1050 1101 l 900 1101 z "},"&":{"ha":1029,"x_min":0,"x_max":0,"o":"m 882 269 b 990 533 954 361 990 449 l 769 536 b 721 397 758 468 747 424 z m 526 207 b 422 175 492 186 457 175 b 283 314 329 181 283 226 b 339 417 283 351 301 386 l 221 572 b 53 289 108 468 53 374 b 406 -24 53 71 161 -24 b 668 67 510 -24 597 7 z m 551 581 b 744 883 685 681 744 776 b 438 1124 744 1051 644 1124 b 136 881 231 1124 136 1049 b 240 603 136 771 171 679 b 885 -24 513 238 733 42 l 957 167 b 340 889 579 438 340 758 b 443 979 340 946 376 979 b 538 889 508 979 538 946 b 450 738 538 831 508 781 z "},"'":{"ha":314,"x_min":0,"x_max":0,"o":"m 67 935 l 97 706 l 225 706 l 256 932 l 256 1129 l 67 1129 z "},"(":{"ha":353,"x_min":0,"x_max":0,"o":"m 324 -136 b 164 481 217 74 164 279 b 326 1075 164 683 218 882 l 218 1125 b 32 476 94 915 32 699 b 207 -168 32 267 90 53 z "},")":{"ha":353,"x_min":0,"x_max":0,"o":"m 153 -168 b 326 476 268 53 326 268 b 139 1125 326 700 267 907 l 32 1075 b 196 481 142 882 196 685 b 35 -136 196 279 146 76 z "},"*":{"ha":564,"x_min":0,"x_max":0,"o":"m 239 569 l 292 779 l 408 603 l 479 661 l 326 813 l 533 826 l 517 919 l 319 858 l 406 1047 l 318 1081 l 274 874 l 149 1049 l 79 986 l 239 842 l 32 828 l 50 735 l 249 797 l 153 600 z "},"+":{"ha":672,"x_min":0,"x_max":0,"o":"m 422 838 l 258 838 l 258 617 l 25 617 l 25 465 l 258 465 l 258 231 l 422 231 l 422 465 l 646 465 l 646 617 l 422 617 z "},",":{"ha":344,"x_min":0,"x_max":0,"o":"m 61 -164 l 176 -164 l 299 7 l 299 188 l 69 188 l 69 0 l 143 0 z "},"-":{"ha":590,"x_min":0,"x_max":0,"o":"m 69 386 l 519 386 l 519 500 l 69 500 z "},".":{"ha":383,"x_min":0,"x_max":0,"o":"m 69 0 l 314 0 l 314 174 l 69 174 z "},"/":{"ha":765,"x_min":0,"x_max":0,"o":"m 10 -142 l 167 -142 l 756 1125 l 600 1125 z "},":":{"ha":340,"x_min":0,"x_max":0,"o":"m 69 0 l 290 0 l 290 192 l 69 192 z m 69 292 l 290 292 l 290 483 l 69 483 z "},";":{"ha":342,"x_min":0,"x_max":0,"o":"m 67 297 l 289 297 l 289 490 l 67 490 z m 60 -169 l 175 -169 l 289 7 l 289 196 l 67 196 l 67 0 l 143 0 z "},"<":{"ha":464,"x_min":0,"x_max":0,"o":"m 415 863 l 13 568 l 13 436 l 415 143 l 415 290 l 114 500 l 415 714 z "},"=":{"ha":765,"x_min":0,"x_max":0,"o":"m 69 375 l 69 229 l 729 229 l 729 375 z m 69 668 l 69 522 l 729 522 l 729 668 z "},">":{"ha":485,"x_min":0,"x_max":0,"o":"m 69 143 l 474 436 l 474 568 l 69 861 l 69 714 l 371 504 l 69 292 z "},"?":{"ha":769,"x_min":0,"x_max":0,"o":"m 258 0 l 490 0 l 490 207 l 258 207 z m 258 835 b 257 854 257 842 257 849 b 371 947 257 911 299 943 l 371 1121 b 33 833 146 1118 33 1022 z m 476 315 l 476 331 b 610 575 476 397 476 475 b 733 819 699 640 733 719 b 408 1121 733 1013 625 1114 l 408 946 b 500 815 469 938 500 894 l 500 794 b 392 611 500 726 464 665 b 278 315 314 551 282 454 z "},"@":{"ha":1068,"x_min":0,"x_max":0,"o":"m 363 510 l 228 510 l 228 499 b 433 226 228 344 318 226 b 593 318 478 226 549 274 b 708 226 606 268 646 226 b 1007 644 843 226 1007 435 b 574 1103 1007 906 826 1092 l 574 982 b 892 647 756 967 892 832 b 733 356 892 465 806 356 b 688 385 699 356 688 364 b 689 401 688 394 688 400 l 710 513 l 601 513 b 460 346 571 426 514 346 l 453 346 b 363 490 399 346 363 401 z m 154 517 b 515 979 154 771 303 961 l 515 1103 b 39 511 178 1081 39 767 b 522 -11 39 201 222 4 l 522 111 b 154 517 285 126 154 278 z m 725 578 l 778 856 l 661 856 l 651 803 b 511 874 614 850 567 874 b 232 578 390 874 265 735 l 374 578 b 513 756 392 671 461 756 b 615 611 574 756 615 700 b 613 578 615 599 614 588 z m 865 225 b 599 111 803 158 715 115 l 599 -11 b 1014 225 788 -7 914 75 z "},"A":{"ha":900,"x_min":0,"x_max":0,"o":"m 289 1100 l 10 0 l 260 0 l 454 861 l 540 414 l 394 414 l 358 231 l 578 231 l 629 0 l 894 0 l 615 1100 z "},"B":{"ha":903,"x_min":0,"x_max":0,"o":"m 69 1100 l 69 0 l 321 0 l 321 1100 z m 367 654 l 367 471 l 454 471 b 590 322 544 471 590 421 b 460 185 590 231 547 185 l 367 185 l 367 0 l 464 0 b 849 301 721 0 849 100 b 682 564 849 451 788 538 b 831 808 781 583 831 665 b 447 1100 831 1003 703 1100 l 367 1100 l 367 915 l 454 915 b 572 778 538 915 572 872 b 454 654 572 699 533 654 z "},"C":{"ha":903,"x_min":0,"x_max":0,"o":"m 474 944 b 583 833 547 940 583 904 l 583 717 l 847 717 l 847 819 b 474 1125 847 1021 722 1124 z m 474 -22 b 847 294 722 -17 847 89 l 847 413 l 583 413 l 583 261 b 474 156 583 197 547 163 z m 63 301 b 422 -22 63 94 182 -12 l 422 156 b 321 261 354 165 321 200 l 321 833 b 422 943 321 899 354 935 l 422 1124 b 63 824 182 1113 63 1013 z "},"D":{"ha":906,"x_min":0,"x_max":0,"o":"m 360 913 l 447 913 b 583 800 542 913 583 879 l 583 285 b 450 188 583 218 544 188 l 360 188 l 360 0 l 488 0 b 843 314 725 0 843 104 l 843 790 b 490 1100 843 997 725 1100 l 360 1100 z m 69 1100 l 69 0 l 321 0 l 321 1100 z "},"E":{"ha":733,"x_min":0,"x_max":0,"o":"m 363 481 l 674 481 l 674 664 l 363 664 z m 363 915 l 693 915 l 693 1100 l 363 1100 z m 693 190 l 363 190 l 363 0 l 693 0 z m 69 1100 l 69 0 l 324 0 l 324 1100 z "},"F":{"ha":719,"x_min":0,"x_max":0,"o":"m 363 481 l 674 481 l 674 664 l 363 664 z m 363 915 l 693 915 l 693 1100 l 363 1100 z m 69 1100 l 69 0 l 324 0 l 324 1100 z "},"G":{"ha":894,"x_min":0,"x_max":0,"o":"m 464 946 b 583 833 543 943 583 906 l 583 721 l 829 721 l 829 821 b 464 1125 829 1024 707 1125 z m 464 -19 l 475 -19 b 657 79 558 -19 619 14 l 713 0 l 829 0 l 829 650 l 443 650 l 443 485 l 525 485 b 583 415 564 485 583 461 l 583 265 b 464 156 583 194 543 157 z m 63 303 b 424 -18 63 79 172 -18 l 424 156 b 321 265 356 163 321 200 l 321 833 b 424 944 321 899 356 936 l 424 1124 b 63 824 183 1124 63 1024 z "},"H":{"ha":900,"x_min":0,"x_max":0,"o":"m 322 1100 l 69 1100 l 69 0 l 322 0 z m 575 663 l 367 663 l 367 479 l 575 479 l 575 0 l 831 0 l 831 1100 l 575 1100 z "},"I":{"ha":399,"x_min":0,"x_max":0,"o":"m 69 0 l 329 0 l 329 1100 l 69 1100 z "},"J":{"ha":529,"x_min":0,"x_max":0,"o":"m 28 0 l 149 0 b 465 314 360 0 465 104 l 465 1100 l 210 1100 l 210 267 b 46 196 206 218 157 196 l 28 196 z "},"K":{"ha":929,"x_min":0,"x_max":0,"o":"m 613 1100 l 511 929 l 614 719 l 879 1100 z m 364 382 l 417 460 l 631 0 l 901 0 l 479 885 l 364 697 z m 325 0 l 325 1100 l 69 1100 l 69 0 z "},"L":{"ha":686,"x_min":0,"x_max":0,"o":"m 69 1100 l 69 0 l 322 0 l 322 1100 z m 663 185 l 371 185 l 371 0 l 663 0 z "},"M":{"ha":1189,"x_min":0,"x_max":0,"o":"m 69 1100 l 69 0 l 306 0 l 306 1100 z m 882 1100 l 882 0 l 1121 0 l 1121 1100 z m 650 0 l 853 604 l 853 1100 l 779 1100 l 594 344 l 406 1100 l 333 1100 l 333 613 l 529 0 z "},"N":{"ha":949,"x_min":0,"x_max":0,"o":"m 611 453 l 336 1014 l 336 631 l 611 74 z m 69 1100 l 69 0 l 306 0 l 306 1100 z m 640 1100 l 640 0 l 881 0 l 881 1100 z "},"O":{"ha":908,"x_min":0,"x_max":0,"o":"m 63 314 b 428 -22 63 100 185 -12 l 428 156 b 321 274 357 163 321 203 l 321 828 b 428 944 321 897 357 936 l 428 1124 b 63 817 185 1117 63 1014 z m 583 274 b 474 156 583 201 547 163 l 474 -22 b 847 308 722 -17 847 93 l 847 811 b 474 1125 847 1018 722 1124 l 474 944 b 583 828 547 938 583 899 z "},"P":{"ha":854,"x_min":0,"x_max":0,"o":"m 69 1100 l 69 0 l 321 0 l 321 1100 z m 367 654 l 367 471 l 454 471 b 831 808 714 471 831 574 b 447 1100 831 1003 703 1100 l 367 1100 l 367 915 l 454 915 b 572 778 538 915 572 872 b 454 654 572 699 533 654 z "},"Q":{"ha":893,"x_min":0,"x_max":0,"o":"m 53 314 b 417 -22 53 99 174 -14 l 417 156 b 311 274 346 163 311 201 l 311 828 b 417 944 311 897 346 936 l 417 1124 b 53 817 174 1117 53 1015 z m 461 -50 b 588 -185 461 -140 503 -185 l 828 -185 l 828 -21 l 569 -21 l 569 -10 b 833 308 746 22 833 128 l 833 811 b 461 1125 833 1019 710 1124 l 461 944 b 574 828 536 938 574 899 l 574 274 b 461 156 574 201 536 163 z "},"R":{"ha":890,"x_min":0,"x_max":0,"o":"m 69 1100 l 69 0 l 321 0 l 321 1100 z m 367 654 l 367 471 l 454 471 b 569 329 531 471 569 424 l 569 81 b 588 0 569 44 575 18 l 844 0 b 828 97 832 21 828 54 l 828 339 b 683 564 828 464 779 539 b 831 808 789 585 831 664 b 447 1100 831 1003 703 1100 l 367 1100 l 367 915 l 454 915 b 572 778 538 915 572 872 b 454 654 572 699 533 654 z "},"S":{"ha":922,"x_min":0,"x_max":0,"o":"m 860 801 b 496 1119 860 1004 739 1110 l 496 933 b 604 801 568 922 604 878 z m 51 326 b 435 -22 51 103 179 -12 l 435 168 b 294 326 344 176 297 229 z m 868 257 b 721 511 868 356 819 440 b 364 757 718 511 465 696 b 326 829 339 775 326 799 b 433 933 326 894 350 924 l 433 1119 b 74 835 193 1113 74 1018 b 211 603 90 740 136 663 b 554 353 318 531 426 447 b 619 256 592 324 614 289 b 496 167 619 204 578 174 l 496 -22 b 868 257 744 -17 868 76 z "},"T":{"ha":824,"x_min":0,"x_max":0,"o":"m 24 1100 l 24 915 l 807 915 l 807 1100 z m 288 0 l 540 0 l 540 872 l 288 872 z "},"U":{"ha":914,"x_min":0,"x_max":0,"o":"m 432 156 b 325 274 361 163 325 203 l 325 1100 l 67 1100 l 67 314 b 432 -22 67 99 189 -14 z m 476 -22 b 849 308 724 -17 847 93 l 849 1100 l 588 1100 l 588 274 b 476 156 588 196 549 163 z "},"V":{"ha":876,"x_min":0,"x_max":0,"o":"m 621 1100 l 475 401 l 574 0 l 874 1100 z m 261 1100 l 10 1100 l 314 0 l 522 0 z "},"W":{"ha":1292,"x_min":0,"x_max":0,"o":"m 1031 111 l 1278 1100 l 1033 1100 l 926 551 z m 257 1100 l 13 1100 l 281 0 l 465 0 z m 538 1100 l 413 546 l 499 93 l 644 764 l 803 0 l 1000 0 l 751 1100 z "},"X":{"ha":972,"x_min":0,"x_max":0,"o":"m 643 1100 l 517 826 l 633 617 l 911 1100 z m 315 517 l 31 0 l 299 0 l 438 308 z m 33 1100 l 663 0 l 936 0 l 304 1100 z "},"Y":{"ha":901,"x_min":0,"x_max":0,"o":"m 624 1100 l 329 390 l 329 0 l 582 0 l 582 464 l 890 1100 z m 278 1100 l 17 1100 l 310 464 l 424 738 z "},"Z":{"ha":817,"x_min":0,"x_max":0,"o":"m 85 904 l 778 904 l 778 1100 l 85 1100 z m 44 196 l 44 0 l 778 0 l 778 196 z m 354 232 l 747 871 l 467 871 l 74 232 z "},"[":{"ha":353,"x_min":0,"x_max":0,"o":"m 69 -137 l 303 -137 l 303 -49 l 189 -49 l 189 1029 l 303 1029 l 303 1125 l 69 1125 z "},"\\":{"ha":765,"x_min":0,"x_max":0,"o":"m 167 1125 l 10 1125 l 600 -142 l 756 -142 z "},"]":{"ha":353,"x_min":0,"x_max":0,"o":"m 303 1125 l 69 1125 l 69 1029 l 185 1029 l 185 -49 l 69 -49 l 69 -137 l 303 -137 z "},"^":{"ha":754,"x_min":0,"x_max":0,"o":"m 321 1100 l 33 663 l 160 663 l 376 1006 l 593 663 l 719 663 l 435 1100 z "},"_":{"ha":901,"x_min":0,"x_max":0,"o":"m -3 -167 l -3 -299 l 914 -299 l 914 -167 z "},"`":{"ha":447,"x_min":0,"x_max":0,"o":"m 240 842 l 376 842 l 247 994 l -10 994 z "},"a":{"ha":810,"x_min":0,"x_max":0,"o":"m 501 106 b 536 0 501 63 510 29 l 765 0 b 736 306 746 35 736 136 l 736 542 b 433 769 736 693 635 769 b 93 531 207 769 93 690 l 322 531 b 433 606 326 585 363 606 b 501 540 479 606 501 583 z m 56 218 b 321 -10 56 67 144 -10 b 454 24 375 -10 419 1 l 454 165 b 354 154 428 156 397 154 b 290 244 314 154 292 185 b 454 358 294 293 343 332 l 454 504 b 56 218 176 467 56 375 z "},"b":{"ha":756,"x_min":0,"x_max":0,"o":"m 392 614 b 485 519 454 614 485 582 l 485 215 b 399 143 485 164 456 143 b 339 167 378 143 357 151 l 339 38 b 511 -10 388 6 444 -10 b 719 247 656 -10 719 79 l 719 496 b 494 769 719 686 651 769 b 339 726 433 769 382 756 l 339 593 b 392 614 354 607 371 614 z m 69 0 l 299 0 l 299 1117 l 69 1117 z "},"c":{"ha":771,"x_min":0,"x_max":0,"o":"m 717 319 l 485 319 l 485 244 b 408 147 485 189 460 157 l 408 -18 b 717 257 614 -10 717 82 z m 485 436 l 717 436 l 717 508 b 408 769 717 678 614 765 l 408 606 b 485 518 460 599 485 569 z m 294 518 b 364 606 294 569 321 600 l 364 769 b 61 511 163 765 61 679 l 61 258 b 364 -18 61 82 163 -11 l 364 147 b 294 244 318 156 294 188 z "},"d":{"ha":756,"x_min":0,"x_max":0,"o":"m 457 0 l 686 0 l 686 1117 l 457 1117 z m 363 614 b 417 593 383 614 401 607 l 417 726 b 253 769 374 756 319 769 b 35 496 103 769 35 681 l 35 247 b 242 -10 35 79 103 -10 b 417 38 310 -10 368 6 l 417 167 b 354 143 396 151 375 143 b 269 215 300 143 269 164 l 269 519 b 363 614 269 582 300 614 z "},"e":{"ha":774,"x_min":0,"x_max":0,"o":"m 717 265 l 485 265 l 485 244 b 406 147 485 188 458 156 l 406 -18 b 717 257 613 -10 717 82 z m 406 349 l 717 349 l 717 508 b 406 769 717 678 613 765 l 406 606 b 485 518 458 600 485 571 l 485 461 l 406 461 z m 294 461 l 294 518 b 367 606 294 572 318 601 l 367 771 b 61 511 163 767 61 681 l 61 258 b 367 -18 61 79 163 -12 l 367 146 b 294 244 318 154 294 188 l 294 349 l 367 349 l 367 461 z "},"f":{"ha":522,"x_min":0,"x_max":0,"o":"m 133 0 l 361 0 l 361 850 b 438 957 361 921 386 956 b 465 956 449 956 456 956 l 501 956 l 501 1117 l 382 1117 b 133 850 217 1117 133 1028 z m 399 578 l 506 578 l 506 751 l 399 751 z m 13 751 l 13 578 l 94 578 l 94 751 z "},"g":{"ha":758,"x_min":0,"x_max":0,"o":"m 694 751 l 483 751 l 483 49 b 314 -90 483 -61 425 -90 b 238 -83 279 -90 253 -89 l 238 -236 b 351 -249 275 -242 313 -249 b 694 97 581 -249 694 -133 z m 367 186 b 288 289 304 186 288 239 l 288 536 b 371 607 288 590 315 607 b 435 588 392 607 414 600 l 435 715 b 258 761 385 747 326 757 b 53 504 114 757 53 678 l 53 303 b 297 28 53 119 135 28 b 435 92 357 31 403 51 l 435 225 b 367 186 418 199 396 186 z "},"h":{"ha":757,"x_min":0,"x_max":0,"o":"m 721 0 l 721 508 b 494 769 721 693 644 769 b 339 726 433 769 382 756 l 339 593 b 392 614 354 607 371 614 b 485 508 454 614 485 579 l 485 0 z m 69 0 l 299 0 l 299 1117 l 69 1117 z "},"i":{"ha":365,"x_min":0,"x_max":0,"o":"m 69 854 l 299 854 l 299 1032 l 69 1032 z m 69 0 l 294 0 l 294 751 l 69 751 z "},"j":{"ha":351,"x_min":0,"x_max":0,"o":"m 61 856 l 288 856 l 288 1033 l 61 1033 z m 288 751 l 61 751 l 61 4 b -56 -83 61 -67 22 -83 b -104 -76 -71 -83 -83 -83 l -104 -236 b 24 -249 -65 -242 -22 -249 b 288 1 200 -249 288 -165 z "},"k":{"ha":794,"x_min":0,"x_max":0,"o":"m 549 481 l 744 751 l 485 751 l 443 678 z m 326 231 l 375 311 l 539 0 l 774 0 l 419 643 l 326 486 z m 69 0 l 299 0 l 299 1117 l 69 1117 z "},"l":{"ha":369,"x_min":0,"x_max":0,"o":"m 69 0 l 299 0 l 299 1117 l 69 1117 z "},"m":{"ha":1157,"x_min":0,"x_max":0,"o":"m 69 0 l 299 0 l 299 751 l 69 751 z m 1090 0 l 1090 508 b 865 769 1090 688 1010 769 b 746 726 819 769 781 756 l 746 593 b 792 614 757 607 772 614 b 854 522 833 614 854 583 l 854 0 z m 661 647 b 467 769 624 736 567 769 b 339 726 424 769 382 756 l 339 593 b 392 614 354 607 371 614 b 456 522 435 614 456 583 l 456 0 l 692 0 l 692 497 b 710 547 692 521 697 538 l 710 704 b 661 647 689 686 674 668 z "},"n":{"ha":788,"x_min":0,"x_max":0,"o":"m 721 0 l 721 508 b 494 769 721 693 644 769 b 339 726 433 769 382 756 l 339 593 b 392 614 354 607 371 614 b 485 519 454 614 485 582 l 485 0 z m 69 0 l 299 0 l 299 751 l 69 751 z "},"o":{"ha":776,"x_min":0,"x_max":0,"o":"m 717 508 b 406 771 717 679 613 767 l 406 606 b 485 518 458 600 485 571 l 485 244 b 406 147 485 188 458 156 l 406 -18 b 717 257 613 -10 717 82 z m 294 518 b 376 607 294 572 322 603 l 376 771 b 61 511 167 769 61 682 l 61 258 b 376 -18 61 79 167 -14 l 376 146 b 294 244 322 149 294 182 z "},"p":{"ha":758,"x_min":0,"x_max":0,"o":"m 299 751 l 69 751 l 69 -249 l 299 -249 z m 392 138 b 339 158 371 138 354 144 l 339 25 b 500 -18 379 -4 432 -18 b 719 257 651 -18 719 67 l 719 504 b 511 761 719 675 650 761 b 339 715 446 761 385 744 l 339 588 b 399 607 357 600 378 607 b 485 536 456 607 485 590 l 485 231 b 392 138 485 168 454 138 z "},"q":{"ha":758,"x_min":0,"x_max":0,"o":"m 367 138 b 274 242 299 138 274 186 l 274 536 b 360 607 274 590 303 607 b 422 588 381 607 401 600 l 422 715 b 242 761 371 746 310 761 b 40 504 103 761 40 678 l 40 257 b 265 -18 40 67 108 -18 b 422 25 328 -18 379 -4 l 422 158 b 367 138 404 144 385 138 z m 689 751 l 461 751 l 461 -249 l 689 -249 z "},"r":{"ha":550,"x_min":0,"x_max":0,"o":"m 333 525 b 447 581 358 563 396 581 b 522 568 471 581 496 578 l 522 758 l 507 758 b 333 682 431 758 374 733 z m 69 0 l 299 0 l 299 751 l 69 751 z "},"s":{"ha":754,"x_min":0,"x_max":0,"o":"m 696 507 b 401 769 693 678 594 765 l 401 606 b 494 507 461 600 493 567 z m 49 272 b 365 -21 51 83 157 -14 l 365 147 b 257 272 293 156 257 197 z m 706 207 b 289 550 706 435 289 456 b 371 606 289 585 317 604 l 371 771 b 79 543 176 767 79 690 b 356 301 79 425 171 361 b 496 200 449 271 496 238 b 397 146 496 164 463 146 l 397 -21 b 706 207 603 -17 706 58 z "},"t":{"ha":538,"x_min":0,"x_max":0,"o":"m 13 751 l 13 578 l 103 578 l 103 751 z m 390 578 l 486 578 l 486 751 l 390 751 z m 131 979 l 131 235 b 415 -22 131 64 225 -21 b 525 -10 467 -17 504 -14 l 525 149 b 447 143 493 144 468 143 b 356 249 386 143 356 178 l 356 979 z "},"u":{"ha":786,"x_min":0,"x_max":0,"o":"m 67 751 l 67 242 b 292 -18 67 63 142 -18 b 450 25 354 -18 407 -4 l 450 158 b 394 138 433 144 415 138 b 301 231 332 138 301 168 l 301 751 z m 718 751 l 488 751 l 488 0 l 718 0 z "},"v":{"ha":750,"x_min":0,"x_max":0,"o":"m 506 71 l 728 751 l 500 751 l 394 390 z m 14 751 l 281 0 l 483 0 l 228 751 z "},"w":{"ha":1132,"x_min":0,"x_max":0,"o":"m 900 38 l 1110 751 l 896 751 l 808 354 z m 25 751 l 260 0 l 425 0 l 246 751 z m 456 38 l 571 497 l 701 0 l 875 0 l 653 751 l 486 751 l 379 363 z "},"x":{"ha":811,"x_min":0,"x_max":0,"o":"m 549 414 l 767 751 l 526 751 l 435 593 z m 39 0 l 267 0 l 382 186 l 261 364 z m 53 751 l 546 0 l 775 0 l 289 751 z "},"y":{"ha":756,"x_min":0,"x_max":0,"o":"m 497 8 l 738 751 l 507 751 l 411 336 z m 238 751 l 22 751 l 278 31 b 158 -74 276 -39 236 -74 l 115 -74 l 115 -246 b 131 -249 121 -249 125 -249 b 475 -53 311 -249 414 -219 z "},"z":{"ha":682,"x_min":0,"x_max":0,"o":"m 322 197 l 604 553 l 361 553 l 76 197 z m 72 585 l 640 585 l 640 751 l 72 751 z m 42 0 l 640 0 l 640 168 l 42 168 z "},"{":{"ha":542,"x_min":0,"x_max":0,"o":"m 494 1131 b 165 853 272 1131 165 1108 l 165 668 b 24 499 165 568 118 515 l 24 321 b 165 151 118 306 165 249 l 165 -33 b 494 -308 165 -289 272 -308 l 494 -176 b 308 -32 388 -165 308 -151 l 308 146 b 144 408 308 292 267 371 b 308 675 267 449 308 526 l 308 853 b 494 999 308 972 388 988 z "},"|":{"ha":289,"x_min":0,"x_max":0,"o":"m 69 1181 l 69 -249 l 221 -249 l 221 1181 z "},"}":{"ha":542,"x_min":0,"x_max":0,"o":"m 49 -308 b 376 -32 269 -308 376 -287 l 376 153 b 518 322 376 253 424 307 l 518 500 b 376 671 424 517 376 565 l 376 854 b 49 1129 376 1110 269 1129 l 49 999 b 235 853 156 988 235 972 l 235 675 b 397 413 235 529 276 450 b 235 147 276 372 235 293 l 235 -32 b 49 -176 235 -153 156 -165 z "},"~":{"ha":864,"x_min":0,"x_max":0,"o":"m 97 450 b 275 513 154 499 214 513 b 583 475 375 513 481 475 b 765 529 644 475 706 486 l 765 665 b 585 608 706 622 644 608 b 274 650 479 608 375 650 b 97 586 213 650 153 635 z "},"¡":{"ha":390,"x_min":0,"x_max":0,"o":"m 314 947 l 71 947 l 71 751 l 314 751 z m 269 636 l 117 636 l 63 -153 l 326 -153 z "},"¢":{"ha":714,"x_min":0,"x_max":0,"o":"m 272 665 b 310 736 272 703 288 721 l 310 894 b 63 660 144 882 63 804 l 63 425 b 310 174 63 271 144 188 l 310 332 b 272 413 285 344 272 371 z m 446 590 l 654 590 l 654 654 b 403 894 654 803 571 882 l 403 738 b 446 665 432 725 446 701 z m 654 481 l 446 481 l 446 413 b 403 331 446 372 432 344 l 403 174 b 654 422 571 188 654 271 z m 246 953 l 467 953 l 467 1100 l 246 1100 z m 242 0 l 461 0 l 461 131 l 242 131 z "},"£":{"ha":750,"x_min":0,"x_max":0,"o":"m 40 0 l 714 0 l 714 122 l 397 122 l 397 803 b 476 911 397 874 426 911 l 629 911 l 629 1069 l 419 1069 b 169 803 253 1069 169 981 l 169 122 l 40 122 z m 436 578 l 542 578 l 542 751 l 436 751 z m 50 751 l 50 578 l 132 578 l 132 751 z "},"¤":{"ha":763,"x_min":0,"x_max":0,"o":"m 186 465 l 96 375 l 192 278 l 267 353 b 325 340 283 344 303 340 l 444 340 b 496 350 464 340 481 344 l 568 278 l 664 375 l 579 460 b 589 511 583 476 588 494 l 482 511 b 435 436 476 472 464 436 l 335 436 b 288 511 304 436 292 474 l 178 511 b 186 465 179 496 182 481 z m 579 665 l 664 750 l 568 847 l 492 771 b 444 779 478 775 463 779 l 325 779 b 269 768 304 779 286 775 l 192 847 l 96 750 l 186 660 b 178 622 182 647 179 635 l 289 622 b 335 683 294 654 307 683 l 435 683 b 481 622 463 683 475 654 l 589 622 b 579 665 588 636 583 651 z "},"¥":{"ha":942,"x_min":0,"x_max":0,"o":"m 169 385 l 169 301 l 344 301 l 344 215 l 169 215 l 169 132 l 344 132 l 344 0 l 600 0 l 600 132 l 754 132 l 754 215 l 600 215 l 600 301 l 754 301 l 754 385 l 600 385 l 600 464 l 906 1100 l 642 1100 l 344 385 z m 294 1100 l 33 1100 l 326 464 l 440 738 z "},"¦":{"ha":283,"x_min":0,"x_max":0,"o":"m 221 -249 l 221 315 l 69 315 l 69 -249 z m 69 1181 l 69 619 l 221 619 l 221 1181 z "},"§":{"ha":790,"x_min":0,"x_max":0,"o":"m 475 324 b 517 250 501 319 517 306 b 468 179 517 200 500 179 l 69 179 l 69 0 l 485 0 b 718 254 656 0 718 83 b 678 381 718 314 704 356 b 756 574 729 424 756 489 b 525 815 756 740 693 814 l 468 815 l 468 638 l 506 638 b 554 569 538 638 554 621 b 488 501 554 514 528 501 l 468 501 l 468 324 z m 319 501 b 271 567 288 501 271 515 b 319 638 271 617 288 638 l 357 638 l 357 817 l 342 817 b 308 888 319 821 308 844 b 357 963 308 943 325 963 l 729 963 l 729 1142 l 340 1142 b 107 883 169 1142 107 1060 b 149 753 107 831 121 788 b 69 563 96 710 69 646 b 300 324 69 400 132 324 l 357 324 l 357 501 z "},"¨":{"ha":613,"x_min":0,"x_max":0,"o":"m 69 842 l 253 842 l 253 994 l 69 994 z m 354 842 l 542 842 l 542 994 l 354 994 z "},"©":{"ha":1236,"x_min":0,"x_max":0,"o":"m 599 361 b 536 446 557 365 536 393 l 536 685 b 599 760 536 731 557 756 l 599 906 b 332 682 421 901 332 826 l 332 458 b 599 214 332 301 421 219 z m 903 508 l 704 508 b 636 361 704 385 694 372 l 636 214 b 903 454 814 224 903 303 z m 903 676 b 636 906 903 826 825 899 l 636 758 b 704 614 697 754 704 739 l 903 614 z m 1118 561 b 625 69 1118 290 900 69 b 133 561 354 69 133 288 b 625 1051 133 829 354 1051 b 1118 561 896 1051 1118 829 z m 1197 560 b 625 1131 1197 871 938 1131 b 57 560 314 1131 57 871 b 625 -11 57 243 314 -11 b 1197 560 938 -11 1197 243 z "},"ª":{"ha":594,"x_min":0,"x_max":0,"o":"m 354 676 b 376 606 354 647 361 624 l 532 606 b 511 811 518 629 511 697 l 511 969 b 308 1124 511 1072 443 1124 b 81 963 157 1124 81 1069 l 232 963 b 308 1014 236 997 261 1014 b 354 968 339 1014 354 999 z m 56 754 b 232 600 56 651 114 600 b 322 621 271 600 301 607 l 322 717 b 256 708 304 710 283 708 b 211 769 229 708 214 729 b 322 847 215 801 250 829 l 322 944 b 56 754 138 918 56 860 z "},"«":{"ha":696,"x_min":0,"x_max":0,"o":"m 613 674 l 315 457 l 315 358 l 613 143 l 613 251 l 390 407 l 613 563 z m 361 674 l 64 457 l 64 358 l 361 143 l 361 251 l 138 407 l 361 563 z "},"¬":{"ha":908,"x_min":0,"x_max":0,"o":"m 806 0 l 806 578 l 68 578 l 68 458 l 683 458 l 683 0 z "},"®":{"ha":751,"x_min":0,"x_max":0,"o":"m 344 975 l 256 975 l 256 588 l 344 588 z m 361 975 l 361 910 b 433 864 424 910 433 903 b 361 818 433 826 426 818 l 361 754 b 433 706 410 754 433 738 b 426 635 433 693 426 653 b 438 588 426 617 431 600 l 529 588 b 521 631 525 594 521 613 l 521 692 b 474 786 521 746 506 778 b 525 872 508 794 525 824 b 388 975 525 940 479 975 z m 375 1051 b 646 781 524 1051 646 929 b 375 510 646 632 526 510 b 104 781 226 510 104 631 b 375 1051 104 932 226 1051 z m 375 1121 b 40 782 190 1121 40 967 b 375 446 40 600 190 446 b 715 782 560 446 715 600 b 375 1121 715 967 560 1121 z "},"¯":{"ha":590,"x_min":0,"x_max":0,"o":"m 67 881 l 517 881 l 517 994 l 67 994 z "},"°":{"ha":575,"x_min":0,"x_max":0,"o":"m 143 881 b 301 1026 143 958 214 1026 b 460 881 389 1026 460 958 b 301 736 460 799 389 736 b 143 881 214 736 143 799 z m 51 886 b 299 643 51 710 192 643 b 542 886 397 643 542 714 b 299 1124 542 1057 397 1124 b 51 886 196 1124 51 1057 z "},"±":{"ha":864,"x_min":0,"x_max":0,"o":"m 97 0 l 765 0 l 765 136 l 97 136 z m 364 894 l 364 628 l 97 628 l 97 492 l 364 492 l 364 225 l 500 225 l 500 492 l 765 492 l 765 628 l 500 628 l 500 894 z "},"²":{"ha":497,"x_min":0,"x_max":0,"o":"m 329 796 b 440 983 403 833 440 896 b 268 1121 440 1075 383 1121 b 72 942 139 1121 74 1061 l 197 942 l 200 967 b 268 1035 200 1013 222 1035 b 322 961 304 1035 322 1010 b 210 831 322 914 285 871 b 69 674 143 796 96 743 l 214 674 b 329 796 224 719 261 760 z m 64 653 l 64 561 l 432 561 l 432 653 z "},"³":{"ha":478,"x_min":0,"x_max":0,"o":"m 235 1121 b 69 951 125 1117 69 1060 l 189 951 l 189 979 b 235 1029 189 1008 204 1025 z m 67 731 b 238 550 67 617 124 557 l 238 640 b 188 731 204 644 188 674 z m 429 719 b 360 847 428 781 406 824 b 415 961 397 874 415 911 b 257 1121 415 1065 363 1119 l 257 1029 b 301 967 286 1025 301 1004 b 224 892 301 917 275 892 l 189 892 l 189 801 l 224 801 b 314 710 289 801 314 775 b 258 642 314 667 296 644 l 258 550 b 429 719 375 554 429 608 z "},"´":{"ha":485,"x_min":0,"x_max":0,"o":"m 239 842 l 485 994 l 196 994 l 72 842 z "},"μ":{"ha":893,"x_min":0,"x_max":0,"o":"m 486 750 l 486 235 b 769 -22 486 64 581 -21 b 882 -10 826 -17 861 -14 l 882 149 b 803 143 850 144 824 143 b 714 249 743 143 714 178 l 714 750 z m 67 751 l 67 -249 l 301 -249 l 301 0 b 349 -4 318 -3 333 -4 b 490 32 393 -4 440 8 l 446 147 b 394 138 431 142 415 138 b 301 231 332 138 301 168 l 301 751 z "},"¶":{"ha":724,"x_min":0,"x_max":0,"o":"m 358 85 l 358 894 l 507 894 l 507 85 l 554 85 l 554 879 l 631 879 l 631 1043 l 242 1043 b 111 833 168 1043 111 949 b 242 624 111 718 168 624 b 303 647 261 624 282 632 l 303 85 z "},"·":{"ha":383,"x_min":0,"x_max":0,"o":"m 69 467 l 314 467 l 314 639 l 69 639 z "},"¸":{"ha":386,"x_min":0,"x_max":0,"o":"m 69 -29 b 175 -156 136 -92 175 -122 b 86 -249 175 -179 147 -204 l 325 -249 b 356 -168 346 -217 356 -190 b 224 -29 356 -117 308 -78 z "},"¹":{"ha":365,"x_min":0,"x_max":0,"o":"m 281 1129 l 200 1129 b 74 1049 190 1075 149 1049 l 74 974 l 157 974 l 157 536 l 281 536 z "},"º":{"ha":617,"x_min":0,"x_max":0,"o":"m 542 954 b 314 1149 542 1079 465 1144 l 314 1026 b 372 961 353 1021 372 999 l 372 758 b 314 688 372 718 353 694 l 314 568 b 542 768 465 574 542 640 z m 232 961 b 293 1026 232 1004 256 1025 l 293 1149 b 61 956 139 1146 61 1082 l 61 769 b 293 568 61 638 139 569 l 293 688 b 232 758 250 689 232 715 z "},"»":{"ha":696,"x_min":0,"x_max":0,"o":"m 314 563 l 538 407 l 314 251 l 314 143 l 613 358 l 613 457 l 314 674 z m 64 563 l 285 407 l 64 251 l 64 143 l 360 358 l 360 457 l 64 674 z "},"¼":{"ha":1093,"x_min":0,"x_max":0,"o":"m 831 547 l 831 0 l 949 0 l 949 107 l 1028 107 l 1028 194 l 949 194 l 949 550 l 832 550 z m 619 189 l 619 107 l 808 107 l 808 194 l 721 194 l 808 342 l 808 510 z m 297 1129 l 215 1129 b 90 1049 207 1075 165 1049 l 90 974 l 174 974 l 174 536 l 297 536 z m 79 0 l 221 0 l 1003 1125 l 861 1125 z "},"½":{"ha":1100,"x_min":0,"x_max":0,"o":"m 874 235 b 986 422 949 272 986 335 b 813 561 986 515 928 561 b 619 379 683 561 619 500 l 744 379 l 746 407 b 813 475 749 456 765 475 b 869 399 850 475 869 450 b 756 269 869 347 833 313 b 615 113 688 232 642 178 l 758 113 b 874 235 769 163 808 197 z m 610 92 l 610 0 l 976 0 l 976 92 z m 281 1129 l 200 1129 b 74 1049 190 1075 149 1049 l 74 974 l 157 974 l 157 536 l 281 536 z m 79 0 l 221 0 l 1003 1125 l 861 1125 z "},"¾":{"ha":1086,"x_min":0,"x_max":0,"o":"m 194 1121 b 29 953 85 1118 29 1063 l 147 953 l 147 979 b 194 1031 147 1010 163 1026 z m 24 733 b 197 551 25 618 82 558 l 197 642 b 144 733 163 644 146 675 z m 388 719 b 319 847 388 782 365 824 b 372 963 354 874 372 913 b 215 1121 372 1067 319 1119 l 215 1031 b 260 967 244 1026 260 1004 b 181 892 260 917 233 892 l 147 892 l 147 801 l 181 801 b 272 710 243 801 272 775 b 217 642 272 668 254 646 l 217 551 b 388 719 331 554 388 610 z m 619 189 l 619 107 l 811 107 l 811 194 l 725 194 l 811 342 l 811 510 z m 832 547 l 832 0 l 951 0 l 951 107 l 1029 107 l 1029 194 l 951 194 l 951 549 z m 79 0 l 221 0 l 1003 1125 l 861 1125 z "},"¿":{"ha":769,"x_min":0,"x_max":0,"o":"m 508 956 l 276 956 l 276 751 l 508 751 z m 508 122 b 396 10 508 51 479 14 l 396 -165 b 735 122 622 -162 735 -67 z m 292 640 l 292 581 b 158 381 292 519 242 446 b 33 136 75 314 33 232 b 358 -165 33 -58 142 -158 l 358 10 b 265 143 296 18 265 63 b 375 344 265 232 308 294 b 489 640 453 401 485 496 z "},"À":{"ha":900,"x_min":0,"x_max":0,"o":"m 289 1100 l 10 0 l 260 0 l 454 861 l 540 414 l 394 414 l 358 231 l 578 231 l 629 0 l 894 0 l 615 1100 z m 476 1190 l 613 1190 l 483 1343 l 226 1343 z "},"Á":{"ha":900,"x_min":0,"x_max":0,"o":"m 289 1100 l 10 0 l 260 0 l 454 861 l 540 414 l 394 414 l 358 231 l 578 231 l 629 0 l 894 0 l 615 1100 z m 438 1190 l 683 1343 l 394 1343 l 271 1190 z "},"Â":{"ha":900,"x_min":0,"x_max":0,"o":"m 289 1100 l 10 0 l 260 0 l 454 861 l 540 414 l 394 414 l 358 231 l 578 231 l 629 0 l 894 0 l 615 1100 z m 367 1190 l 451 1264 l 535 1190 l 694 1190 l 535 1343 l 365 1343 l 206 1190 z "},"Ã":{"ha":900,"x_min":0,"x_max":0,"o":"m 289 1100 l 10 0 l 260 0 l 454 861 l 540 414 l 394 414 l 358 231 l 578 231 l 629 0 l 894 0 l 615 1100 z m 601 1343 b 540 1303 601 1306 578 1303 b 346 1343 461 1303 453 1343 b 178 1190 247 1343 178 1300 l 300 1190 b 354 1231 300 1222 317 1231 b 532 1190 426 1231 456 1190 b 724 1343 649 1190 724 1231 z "},"Ä":{"ha":900,"x_min":0,"x_max":0,"o":"m 289 1100 l 10 0 l 260 0 l 454 861 l 540 414 l 394 414 l 358 231 l 578 231 l 629 0 l 894 0 l 615 1100 z m 214 1190 l 397 1190 l 397 1343 l 214 1343 z m 499 1190 l 686 1190 l 686 1343 l 499 1343 z "},"Å":{"ha":900,"x_min":0,"x_max":0,"o":"m 314 1211 b 371 1100 314 1156 338 1121 l 289 1100 l 10 0 l 260 0 l 454 861 l 540 414 l 394 414 l 358 231 l 578 231 l 629 0 l 894 0 l 615 1100 l 526 1100 b 585 1211 560 1121 585 1156 b 450 1342 585 1307 507 1342 b 314 1211 393 1342 314 1307 z m 392 1207 b 453 1264 392 1239 418 1264 b 511 1207 486 1264 511 1239 b 453 1154 511 1175 486 1154 b 392 1207 418 1154 392 1175 z "},"Æ":{"ha":1043,"x_min":0,"x_max":0,"o":"m 692 664 l 692 481 l 957 481 l 957 664 z m 692 1100 l 692 915 l 976 915 l 976 1100 z m 976 0 l 976 190 l 692 190 l 692 0 z m 654 1100 l 292 1100 l 13 0 l 247 0 l 425 860 l 464 860 l 464 414 l 382 414 l 344 231 l 467 231 l 467 0 l 654 0 z "},"Ç":{"ha":903,"x_min":0,"x_max":0,"o":"m 474 944 b 583 833 547 940 583 904 l 583 717 l 847 717 l 847 819 b 474 1125 847 1021 722 1124 z m 474 -22 b 847 294 722 -17 847 89 l 847 413 l 583 413 l 583 261 b 474 156 583 197 547 163 z m 63 301 b 422 -22 63 94 182 -12 l 422 156 b 321 261 354 165 321 200 l 321 833 b 422 943 321 899 354 935 l 422 1124 b 63 824 182 1113 63 1013 z m 307 -29 b 413 -156 374 -92 413 -122 b 324 -249 413 -179 385 -204 l 563 -249 b 593 -168 583 -217 593 -190 b 461 -29 593 -117 546 -78 z "},"È":{"ha":733,"x_min":0,"x_max":0,"o":"m 363 481 l 674 481 l 674 664 l 363 664 z m 363 915 l 693 915 l 693 1100 l 363 1100 z m 693 190 l 363 190 l 363 0 l 693 0 z m 69 1100 l 69 0 l 324 0 l 324 1100 z m 393 1190 l 529 1190 l 400 1343 l 143 1343 z "},"É":{"ha":733,"x_min":0,"x_max":0,"o":"m 363 481 l 674 481 l 674 664 l 363 664 z m 363 915 l 693 915 l 693 1100 l 363 1100 z m 693 190 l 363 190 l 363 0 l 693 0 z m 69 1100 l 69 0 l 324 0 l 324 1100 z m 353 1190 l 599 1343 l 310 1343 l 186 1190 z "},"Ê":{"ha":733,"x_min":0,"x_max":0,"o":"m 363 481 l 674 481 l 674 664 l 363 664 z m 363 915 l 693 915 l 693 1100 l 363 1100 z m 693 190 l 363 190 l 363 0 l 693 0 z m 69 1100 l 69 0 l 324 0 l 324 1100 z m 283 1190 l 368 1264 l 451 1190 l 611 1190 l 451 1343 l 282 1343 l 122 1190 z "},"Ë":{"ha":733,"x_min":0,"x_max":0,"o":"m 363 481 l 674 481 l 674 664 l 363 664 z m 363 915 l 693 915 l 693 1100 l 363 1100 z m 693 190 l 363 190 l 363 0 l 693 0 z m 69 1100 l 69 0 l 324 0 l 324 1100 z m 131 1190 l 314 1190 l 314 1343 l 131 1343 z m 415 1190 l 603 1190 l 603 1343 l 415 1343 z "},"Ì":{"ha":399,"x_min":0,"x_max":0,"o":"m 69 0 l 329 0 l 329 1100 l 69 1100 z m 228 1190 l 364 1190 l 235 1343 l -22 1343 z "},"Í":{"ha":399,"x_min":0,"x_max":0,"o":"m 69 0 l 329 0 l 329 1100 l 69 1100 z m 188 1190 l 433 1343 l 144 1343 l 21 1190 z "},"Î":{"ha":399,"x_min":0,"x_max":0,"o":"m 69 0 l 329 0 l 329 1100 l 69 1100 z m 117 1190 l 201 1264 l 285 1190 l 444 1190 l 285 1343 l 115 1343 l -44 1190 z "},"Ï":{"ha":399,"x_min":0,"x_max":0,"o":"m 69 0 l 329 0 l 329 1100 l 69 1100 z m -35 1190 l 149 1190 l 149 1343 l -35 1343 z m 250 1190 l 438 1190 l 438 1343 l 250 1343 z "},"Ð":{"ha":964,"x_min":0,"x_max":0,"o":"m 417 913 l 504 913 b 640 800 594 913 640 879 l 640 285 b 508 188 640 218 603 188 l 417 188 l 417 0 l 547 0 b 900 314 782 0 900 104 l 900 790 b 550 1100 900 997 783 1100 l 417 1100 z m 40 475 l 126 475 l 126 0 l 379 0 l 379 475 l 489 475 l 489 589 l 379 589 l 379 1100 l 126 1100 l 126 589 l 40 589 z "},"Ñ":{"ha":949,"x_min":0,"x_max":0,"o":"m 611 453 l 336 1014 l 336 631 l 611 74 z m 69 1100 l 69 0 l 306 0 l 306 1100 z m 640 1100 l 640 0 l 881 0 l 881 1100 z m 626 1343 b 565 1303 626 1306 603 1303 b 371 1343 486 1303 478 1343 b 203 1190 272 1343 203 1300 l 325 1190 b 379 1231 325 1222 342 1231 b 557 1190 451 1231 481 1190 b 749 1343 674 1190 749 1231 z "},"Ò":{"ha":908,"x_min":0,"x_max":0,"o":"m 63 314 b 428 -22 63 100 185 -12 l 428 156 b 321 274 357 163 321 203 l 321 828 b 428 944 321 897 357 936 l 428 1124 b 63 817 185 1117 63 1014 z m 583 274 b 474 156 583 201 547 163 l 474 -22 b 847 308 722 -17 847 93 l 847 811 b 474 1125 847 1018 722 1124 l 474 944 b 583 828 547 938 583 899 z m 479 1190 l 615 1190 l 486 1343 l 229 1343 z "},"Ó":{"ha":908,"x_min":0,"x_max":0,"o":"m 63 314 b 428 -22 63 100 185 -12 l 428 156 b 321 274 357 163 321 203 l 321 828 b 428 944 321 897 357 936 l 428 1124 b 63 817 185 1117 63 1014 z m 583 274 b 474 156 583 201 547 163 l 474 -22 b 847 308 722 -17 847 93 l 847 811 b 474 1125 847 1018 722 1124 l 474 944 b 583 828 547 938 583 899 z m 440 1190 l 686 1343 l 397 1343 l 274 1190 z "},"Ô":{"ha":908,"x_min":0,"x_max":0,"o":"m 63 314 b 428 -22 63 100 185 -12 l 428 156 b 321 274 357 163 321 203 l 321 828 b 428 944 321 897 357 936 l 428 1124 b 63 817 185 1117 63 1014 z m 583 274 b 474 156 583 201 547 163 l 474 -22 b 847 308 722 -17 847 93 l 847 811 b 474 1125 847 1018 722 1124 l 474 944 b 583 828 547 938 583 899 z m 369 1190 l 454 1264 l 538 1190 l 697 1190 l 538 1343 l 368 1343 l 208 1190 z "},"Õ":{"ha":908,"x_min":0,"x_max":0,"o":"m 63 314 b 428 -22 63 100 185 -12 l 428 156 b 321 274 357 163 321 203 l 321 828 b 428 944 321 897 357 936 l 428 1124 b 63 817 185 1117 63 1014 z m 583 274 b 474 156 583 201 547 163 l 474 -22 b 847 308 722 -17 847 93 l 847 811 b 474 1125 847 1018 722 1124 l 474 944 b 583 828 547 938 583 899 z m 606 1343 b 544 1303 606 1306 582 1303 b 350 1343 465 1303 457 1343 b 182 1190 251 1343 182 1300 l 304 1190 b 358 1231 304 1222 321 1231 b 536 1190 431 1231 460 1190 b 728 1343 653 1190 728 1231 z "},"Ö":{"ha":908,"x_min":0,"x_max":0,"o":"m 63 314 b 428 -22 63 100 185 -12 l 428 156 b 321 274 357 163 321 203 l 321 828 b 428 944 321 897 357 936 l 428 1124 b 63 817 185 1117 63 1014 z m 583 274 b 474 156 583 201 547 163 l 474 -22 b 847 308 722 -17 847 93 l 847 811 b 474 1125 847 1018 722 1124 l 474 944 b 583 828 547 938 583 899 z m 217 1190 l 400 1190 l 400 1343 l 217 1343 z m 501 1190 l 689 1190 l 689 1343 l 501 1343 z "},"×":{"ha":672,"x_min":0,"x_max":0,"o":"m 611 688 l 494 803 l 340 646 l 175 811 l 67 704 l 231 540 l 67 375 l 183 260 l 346 425 l 506 265 l 614 372 l 456 532 z "},"Ø":{"ha":908,"x_min":0,"x_max":0,"o":"m 63 314 b 428 -22 63 100 185 -12 l 428 156 b 322 250 365 163 331 193 l 583 671 l 583 274 b 474 156 583 201 547 163 l 474 -22 b 847 308 722 -17 847 93 l 847 811 b 474 1125 847 1018 722 1124 l 474 944 b 583 828 547 938 583 899 l 321 404 l 321 828 b 428 944 321 897 357 936 l 428 1124 b 63 817 185 1117 63 1014 z "},"Ù":{"ha":914,"x_min":0,"x_max":0,"o":"m 432 156 b 325 274 361 163 325 203 l 325 1100 l 67 1100 l 67 314 b 432 -22 67 99 189 -14 z m 476 -22 b 849 308 724 -17 847 93 l 849 1100 l 588 1100 l 588 274 b 476 156 588 196 549 163 z m 482 1190 l 618 1190 l 489 1343 l 232 1343 z "},"Ú":{"ha":914,"x_min":0,"x_max":0,"o":"m 432 156 b 325 274 361 163 325 203 l 325 1100 l 67 1100 l 67 314 b 432 -22 67 99 189 -14 z m 476 -22 b 849 308 724 -17 847 93 l 849 1100 l 588 1100 l 588 274 b 476 156 588 196 549 163 z m 444 1190 l 690 1343 l 401 1343 l 278 1190 z "},"Û":{"ha":914,"x_min":0,"x_max":0,"o":"m 432 156 b 325 274 361 163 325 203 l 325 1100 l 67 1100 l 67 314 b 432 -22 67 99 189 -14 z m 476 -22 b 849 308 724 -17 847 93 l 849 1100 l 588 1100 l 588 274 b 476 156 588 196 549 163 z m 372 1190 l 457 1264 l 540 1190 l 700 1190 l 540 1343 l 371 1343 l 211 1190 z "},"Ü":{"ha":914,"x_min":0,"x_max":0,"o":"m 432 156 b 325 274 361 163 325 203 l 325 1100 l 67 1100 l 67 314 b 432 -22 67 99 189 -14 z m 476 -22 b 849 308 724 -17 847 93 l 849 1100 l 588 1100 l 588 274 b 476 156 588 196 549 163 z m 221 1190 l 404 1190 l 404 1343 l 221 1343 z m 506 1190 l 693 1190 l 693 1343 l 506 1343 z "},"Ý":{"ha":901,"x_min":0,"x_max":0,"o":"m 624 1100 l 329 390 l 329 0 l 582 0 l 582 464 l 890 1100 z m 278 1100 l 17 1100 l 310 464 l 424 738 z m 438 1190 l 683 1343 l 394 1343 l 271 1190 z "},"Þ":{"ha":724,"x_min":0,"x_max":0,"o":"m 667 651 b 356 915 667 822 563 910 l 356 750 b 436 663 410 744 436 715 l 436 388 b 356 290 436 332 410 300 l 356 125 b 667 399 563 135 667 226 z m 69 0 l 299 0 l 299 1100 l 69 1100 z "},"ß":{"ha":833,"x_min":0,"x_max":0,"o":"m 776 319 b 636 574 776 447 731 525 b 747 801 710 625 747 701 b 433 1121 747 1011 643 1117 l 433 936 b 521 813 492 929 521 888 b 428 661 521 707 490 661 l 428 490 b 547 300 511 486 547 428 b 435 163 547 215 510 169 l 435 -21 b 776 319 674 -17 776 96 z m 385 1121 b 56 781 165 1113 56 999 l 56 -4 l 294 -4 l 294 807 b 385 936 294 886 325 929 z "},"à":{"ha":810,"x_min":0,"x_max":0,"o":"m 501 106 b 536 0 501 63 510 29 l 765 0 b 736 306 746 35 736 136 l 736 542 b 433 769 736 693 635 769 b 93 531 207 769 93 690 l 322 531 b 433 606 326 585 363 606 b 501 540 479 606 501 583 z m 56 218 b 321 -10 56 67 144 -10 b 454 24 375 -10 419 1 l 454 165 b 354 154 428 156 397 154 b 290 244 314 154 292 185 b 454 358 294 293 343 332 l 454 504 b 56 218 176 467 56 375 z m 439 842 l 575 842 l 446 994 l 189 994 z "},"á":{"ha":810,"x_min":0,"x_max":0,"o":"m 501 106 b 536 0 501 63 510 29 l 765 0 b 736 306 746 35 736 136 l 736 542 b 433 769 736 693 635 769 b 93 531 207 769 93 690 l 322 531 b 433 606 326 585 363 606 b 501 540 479 606 501 583 z m 56 218 b 321 -10 56 67 144 -10 b 454 24 375 -10 419 1 l 454 165 b 354 154 428 156 397 154 b 290 244 314 154 292 185 b 454 358 294 293 343 332 l 454 504 b 56 218 176 467 56 375 z m 399 842 l 644 994 l 356 994 l 232 842 z "},"â":{"ha":810,"x_min":0,"x_max":0,"o":"m 501 106 b 536 0 501 63 510 29 l 765 0 b 736 306 746 35 736 136 l 736 542 b 433 769 736 693 635 769 b 93 531 207 769 93 690 l 322 531 b 433 606 326 585 363 606 b 501 540 479 606 501 583 z m 56 218 b 321 -10 56 67 144 -10 b 454 24 375 -10 419 1 l 454 165 b 354 154 428 156 397 154 b 290 244 314 154 292 185 b 454 358 294 293 343 332 l 454 504 b 56 218 176 467 56 375 z m 328 842 l 413 915 l 496 842 l 656 842 l 496 994 l 326 994 l 167 842 z "},"ã":{"ha":810,"x_min":0,"x_max":0,"o":"m 501 106 b 536 0 501 63 510 29 l 765 0 b 736 306 746 35 736 136 l 736 542 b 433 769 736 693 635 769 b 93 531 207 769 93 690 l 322 531 b 433 606 326 585 363 606 b 501 540 479 606 501 583 z m 56 218 b 321 -10 56 67 144 -10 b 454 24 375 -10 419 1 l 454 165 b 354 154 428 156 397 154 b 290 244 314 154 292 185 b 454 358 294 293 343 332 l 454 504 b 56 218 176 467 56 375 z m 564 994 b 503 954 564 957 540 954 b 308 994 424 954 415 994 b 140 842 210 994 140 951 l 263 842 b 317 882 263 874 279 882 b 494 842 389 882 418 842 b 686 994 611 842 686 882 z "},"ä":{"ha":810,"x_min":0,"x_max":0,"o":"m 501 106 b 536 0 501 63 510 29 l 765 0 b 736 306 746 35 736 136 l 736 542 b 433 769 736 693 635 769 b 93 531 207 769 93 690 l 322 531 b 433 606 326 585 363 606 b 501 540 479 606 501 583 z m 56 218 b 321 -10 56 67 144 -10 b 454 24 375 -10 419 1 l 454 165 b 354 154 428 156 397 154 b 290 244 314 154 292 185 b 454 358 294 293 343 332 l 454 504 b 56 218 176 467 56 375 z m 175 842 l 358 842 l 358 994 l 175 994 z m 460 842 l 647 842 l 647 994 l 460 994 z "},"å":{"ha":810,"x_min":0,"x_max":0,"o":"m 276 863 b 318 761 276 817 290 783 b 93 531 168 738 93 660 l 322 531 b 433 606 326 585 363 606 b 501 540 479 606 501 583 l 501 106 b 536 0 501 63 510 29 l 765 0 b 736 306 746 35 736 136 l 736 542 b 507 765 736 674 660 749 b 547 863 531 788 547 819 b 413 994 547 956 469 994 b 276 863 354 994 276 956 z m 56 218 b 321 -10 56 67 144 -10 b 454 24 375 -10 419 1 l 454 165 b 354 154 428 156 397 154 b 290 244 314 154 292 185 b 454 358 294 293 343 332 l 454 504 b 56 218 176 467 56 375 z m 353 860 b 414 914 353 892 381 914 b 475 860 447 914 475 892 b 414 806 475 828 447 806 b 353 860 381 806 353 828 z "},"æ":{"ha":1215,"x_min":0,"x_max":0,"o":"m 808 771 b 614 718 735 769 669 751 b 433 769 574 751 517 769 b 93 531 207 769 93 690 l 322 531 b 429 606 326 585 361 606 b 500 511 476 606 500 574 l 500 258 b 796 -18 500 40 676 -18 l 808 -18 l 808 146 b 736 238 760 153 736 183 l 736 349 l 808 349 l 808 461 l 736 461 l 736 536 b 808 606 744 579 768 601 z m 454 504 b 56 217 176 467 56 374 b 321 -10 56 65 144 -10 b 454 24 375 -10 419 1 l 454 165 b 354 154 428 156 397 154 b 290 244 311 154 290 185 b 454 358 290 293 349 332 z m 847 349 l 1157 349 l 1157 508 b 847 769 1157 682 1060 765 l 847 606 b 925 518 903 600 925 569 l 925 461 l 847 461 z m 1157 265 l 925 265 l 925 244 b 847 147 925 188 899 156 l 847 -18 b 1157 257 1060 -8 1157 78 z "},"ç":{"ha":771,"x_min":0,"x_max":0,"o":"m 717 319 l 485 319 l 485 244 b 408 147 485 189 460 157 l 408 -18 b 717 257 614 -10 717 82 z m 485 436 l 717 436 l 717 508 b 408 769 717 678 614 765 l 408 606 b 485 518 460 599 485 569 z m 294 518 b 364 606 294 569 321 600 l 364 769 b 61 511 163 765 61 679 l 61 258 b 364 -18 61 82 163 -11 l 364 147 b 294 244 318 156 294 188 z m 243 -29 b 349 -156 310 -92 349 -122 b 260 -249 349 -179 321 -204 l 499 -249 b 529 -168 519 -217 529 -190 b 397 -29 529 -117 482 -78 z "},"è":{"ha":774,"x_min":0,"x_max":0,"o":"m 717 265 l 485 265 l 485 244 b 406 147 485 188 458 156 l 406 -18 b 717 257 613 -10 717 82 z m 406 349 l 717 349 l 717 508 b 406 769 717 678 613 765 l 406 606 b 485 518 458 600 485 571 l 485 461 l 406 461 z m 294 461 l 294 518 b 367 606 294 572 318 601 l 367 771 b 61 511 163 767 61 681 l 61 258 b 367 -18 61 79 163 -12 l 367 146 b 294 244 318 154 294 188 l 294 349 l 367 349 l 367 461 z m 414 842 l 550 842 l 421 994 l 164 994 z "},"é":{"ha":774,"x_min":0,"x_max":0,"o":"m 717 265 l 485 265 l 485 244 b 406 147 485 188 458 156 l 406 -18 b 717 257 613 -10 717 82 z m 406 349 l 717 349 l 717 508 b 406 769 717 678 613 765 l 406 606 b 485 518 458 600 485 571 l 485 461 l 406 461 z m 294 461 l 294 518 b 367 606 294 572 318 601 l 367 771 b 61 511 163 767 61 681 l 61 258 b 367 -18 61 79 163 -12 l 367 146 b 294 244 318 154 294 188 l 294 349 l 367 349 l 367 461 z m 374 842 l 619 994 l 331 994 l 207 842 z "},"ê":{"ha":774,"x_min":0,"x_max":0,"o":"m 717 265 l 485 265 l 485 244 b 406 147 485 188 458 156 l 406 -18 b 717 257 613 -10 717 82 z m 406 349 l 717 349 l 717 508 b 406 769 717 678 613 765 l 406 606 b 485 518 458 600 485 571 l 485 461 l 406 461 z m 294 461 l 294 518 b 367 606 294 572 318 601 l 367 771 b 61 511 163 767 61 681 l 61 258 b 367 -18 61 79 163 -12 l 367 146 b 294 244 318 154 294 188 l 294 349 l 367 349 l 367 461 z m 303 842 l 388 915 l 471 842 l 631 842 l 471 994 l 301 994 l 142 842 z "},"ë":{"ha":774,"x_min":0,"x_max":0,"o":"m 717 265 l 485 265 l 485 244 b 406 147 485 188 458 156 l 406 -18 b 717 257 613 -10 717 82 z m 406 349 l 717 349 l 717 508 b 406 769 717 678 613 765 l 406 606 b 485 518 458 600 485 571 l 485 461 l 406 461 z m 294 461 l 294 518 b 367 606 294 572 318 601 l 367 771 b 61 511 163 767 61 681 l 61 258 b 367 -18 61 79 163 -12 l 367 146 b 294 244 318 154 294 188 l 294 349 l 367 349 l 367 461 z m 150 842 l 333 842 l 333 994 l 150 994 z m 435 842 l 622 842 l 622 994 l 435 994 z "},"ì":{"ha":365,"x_min":0,"x_max":0,"o":"m 69 0 l 294 0 l 294 751 l 69 751 z m 211 842 l 347 842 l 218 994 l -39 994 z "},"í":{"ha":365,"x_min":0,"x_max":0,"o":"m 69 0 l 294 0 l 294 751 l 69 751 z m 239 842 l 485 994 l 196 994 l 72 842 z "},"î":{"ha":365,"x_min":0,"x_max":0,"o":"m 69 0 l 294 0 l 294 751 l 69 751 z m 101 842 l 186 915 l 269 842 l 429 842 l 269 994 l 100 994 l -60 842 z "},"ï":{"ha":365,"x_min":0,"x_max":0,"o":"m 69 0 l 294 0 l 294 751 l 69 751 z m -51 842 l 132 842 l 132 994 l -51 994 z m 233 842 l 421 842 l 421 994 l 233 994 z "},"ð":{"ha":885,"x_min":0,"x_max":0,"o":"m 278 850 b 418 940 319 904 367 935 l 418 1124 b 79 968 239 1124 128 1079 z m 578 265 b 468 158 578 203 542 167 l 468 -22 b 828 299 707 -17 828 81 l 828 840 b 458 1124 824 1025 701 1119 l 458 942 b 578 840 535 936 575 903 l 578 619 b 360 692 515 668 443 692 b 64 458 158 692 64 621 l 64 293 b 428 -22 64 92 185 -14 l 428 158 b 314 269 351 163 314 199 l 314 440 b 415 519 314 493 347 519 b 578 456 504 519 554 504 z "},"ñ":{"ha":788,"x_min":0,"x_max":0,"o":"m 721 0 l 721 508 b 494 769 721 693 644 769 b 339 726 433 769 382 756 l 339 593 b 392 614 354 607 371 614 b 485 519 454 614 485 582 l 485 0 z m 69 0 l 299 0 l 299 751 l 69 751 z m 546 994 b 485 954 546 957 522 954 b 290 994 406 954 397 994 b 122 842 192 994 122 951 l 244 842 b 299 882 244 874 261 882 b 476 842 371 882 400 842 b 668 994 593 842 668 882 z "},"ò":{"ha":776,"x_min":0,"x_max":0,"o":"m 717 508 b 406 771 717 679 613 767 l 406 606 b 485 518 458 600 485 571 l 485 244 b 406 147 485 188 458 156 l 406 -18 b 717 257 613 -10 717 82 z m 294 518 b 376 607 294 572 322 603 l 376 771 b 61 511 167 769 61 682 l 61 258 b 376 -18 61 79 167 -14 l 376 146 b 294 244 322 149 294 182 z m 415 842 l 551 842 l 422 994 l 165 994 z "},"ó":{"ha":776,"x_min":0,"x_max":0,"o":"m 717 508 b 406 771 717 679 613 767 l 406 606 b 485 518 458 600 485 571 l 485 244 b 406 147 485 188 458 156 l 406 -18 b 717 257 613 -10 717 82 z m 294 518 b 376 607 294 572 322 603 l 376 771 b 61 511 167 769 61 682 l 61 258 b 376 -18 61 79 167 -14 l 376 146 b 294 244 322 149 294 182 z m 375 842 l 621 994 l 332 994 l 208 842 z "},"ô":{"ha":776,"x_min":0,"x_max":0,"o":"m 717 508 b 406 771 717 679 613 767 l 406 606 b 485 518 458 600 485 571 l 485 244 b 406 147 485 188 458 156 l 406 -18 b 717 257 613 -10 717 82 z m 294 518 b 376 607 294 572 322 603 l 376 771 b 61 511 167 769 61 682 l 61 258 b 376 -18 61 79 167 -14 l 376 146 b 294 244 322 149 294 182 z m 306 842 l 390 915 l 474 842 l 633 842 l 474 994 l 304 994 l 144 842 z "},"õ":{"ha":776,"x_min":0,"x_max":0,"o":"m 717 508 b 406 771 717 679 613 767 l 406 606 b 485 518 458 600 485 571 l 485 244 b 406 147 485 188 458 156 l 406 -18 b 717 257 613 -10 717 82 z m 294 518 b 376 607 294 572 322 603 l 376 771 b 61 511 167 769 61 682 l 61 258 b 376 -18 61 79 167 -14 l 376 146 b 294 244 322 149 294 182 z m 540 994 b 479 954 540 957 517 954 b 285 994 400 954 392 994 b 117 842 186 994 117 951 l 239 842 b 293 882 239 874 256 882 b 471 842 365 882 394 842 b 663 994 588 842 663 882 z "},"ö":{"ha":776,"x_min":0,"x_max":0,"o":"m 717 508 b 406 771 717 679 613 767 l 406 606 b 485 518 458 600 485 571 l 485 244 b 406 147 485 188 458 156 l 406 -18 b 717 257 613 -10 717 82 z m 294 518 b 376 607 294 572 322 603 l 376 771 b 61 511 167 769 61 682 l 61 258 b 376 -18 61 79 167 -14 l 376 146 b 294 244 322 149 294 182 z m 151 842 l 335 842 l 335 994 l 151 994 z m 436 842 l 624 842 l 624 994 l 436 994 z "},"÷":{"ha":590,"x_min":0,"x_max":0,"o":"m 69 494 l 519 494 l 519 611 l 69 611 z m 168 218 l 413 218 l 413 393 l 168 393 z m 175 703 l 417 703 l 417 875 l 175 875 z "},"ø":{"ha":776,"x_min":0,"x_max":0,"o":"m 294 518 b 376 607 294 575 322 604 l 376 771 b 61 511 167 769 61 682 l 61 258 b 376 -18 61 79 167 -14 l 376 146 b 313 176 349 147 328 157 l 485 403 l 485 244 b 406 147 485 188 458 156 l 406 -18 b 717 257 613 -10 717 82 l 717 508 b 406 771 717 679 613 767 l 406 606 b 482 550 449 600 474 582 l 294 303 z "},"ù":{"ha":786,"x_min":0,"x_max":0,"o":"m 67 751 l 67 242 b 292 -18 67 63 142 -18 b 450 25 354 -18 407 -4 l 450 158 b 394 138 433 144 415 138 b 301 231 332 138 301 168 l 301 751 z m 718 751 l 488 751 l 488 0 l 718 0 z m 419 842 l 556 842 l 426 994 l 169 994 z "},"ú":{"ha":786,"x_min":0,"x_max":0,"o":"m 67 751 l 67 242 b 292 -18 67 63 142 -18 b 450 25 354 -18 407 -4 l 450 158 b 394 138 433 144 415 138 b 301 231 332 138 301 168 l 301 751 z m 718 751 l 488 751 l 488 0 l 718 0 z m 381 842 l 626 994 l 338 994 l 214 842 z "},"û":{"ha":786,"x_min":0,"x_max":0,"o":"m 67 751 l 67 242 b 292 -18 67 63 142 -18 b 450 25 354 -18 407 -4 l 450 158 b 394 138 433 144 415 138 b 301 231 332 138 301 168 l 301 751 z m 718 751 l 488 751 l 488 0 l 718 0 z m 310 842 l 394 915 l 478 842 l 638 842 l 478 994 l 308 994 l 149 842 z "},"ü":{"ha":786,"x_min":0,"x_max":0,"o":"m 67 751 l 67 242 b 292 -18 67 63 142 -18 b 450 25 354 -18 407 -4 l 450 158 b 394 138 433 144 415 138 b 301 231 332 138 301 168 l 301 751 z m 718 751 l 488 751 l 488 0 l 718 0 z m 156 842 l 339 842 l 339 994 l 156 994 z m 440 842 l 628 842 l 628 994 l 440 994 z "},"ý":{"ha":756,"x_min":0,"x_max":0,"o":"m 497 8 l 738 751 l 507 751 l 411 336 z m 238 751 l 22 751 l 278 31 b 158 -74 276 -39 236 -74 l 115 -74 l 115 -246 b 131 -249 121 -249 125 -249 b 475 -53 311 -249 414 -219 z m 364 842 l 610 994 l 321 994 l 197 842 z "},"þ":{"ha":756,"x_min":0,"x_max":0,"o":"m 392 614 b 485 519 454 614 485 582 l 485 215 b 399 143 485 164 456 143 b 339 167 378 143 357 151 l 339 38 b 511 -10 388 6 444 -10 b 719 247 656 -10 719 79 l 719 496 b 494 769 719 686 651 769 b 339 726 433 769 382 756 l 339 593 b 392 614 354 607 371 614 z m 69 -249 l 299 -249 l 299 1117 l 69 1117 z "},"ÿ":{"ha":756,"x_min":0,"x_max":0,"o":"m 497 8 l 738 751 l 507 751 l 411 336 z m 238 751 l 22 751 l 278 31 b 158 -74 276 -39 236 -74 l 115 -74 l 115 -246 b 131 -249 121 -249 125 -249 b 475 -53 311 -249 414 -219 z m 140 842 l 324 842 l 324 994 l 140 994 z m 425 842 l 613 842 l 613 994 l 425 994 z "},"ı":{"ha":365,"x_min":0,"x_max":0,"o":"m 69 0 l 294 0 l 294 751 l 69 751 z "},"Ł":{"ha":686,"x_min":0,"x_max":0,"o":"m 69 1100 l 69 0 l 322 0 l 322 1100 z m 663 185 l 371 185 l 371 0 l 663 0 z m 363 481 l 571 561 l 571 746 l 363 664 z "},"ł":{"ha":369,"x_min":0,"x_max":0,"o":"m 69 0 l 299 0 l 299 1100 l 69 1100 z m 363 568 l 458 604 l 458 788 l 363 751 z m -75 381 l 19 417 l 19 601 l -75 564 z "},"Œ":{"ha":1246,"x_min":0,"x_max":0,"o":"m 474 -22 b 626 0 531 -21 583 -12 l 839 0 l 839 225 b 847 308 843 251 847 279 l 847 811 b 839 893 847 840 843 867 l 839 1100 l 647 1100 b 474 1125 601 1117 540 1124 l 474 944 b 583 832 544 938 581 900 l 583 269 b 474 156 579 200 543 163 z m 63 314 b 428 -22 63 100 185 -12 l 428 156 b 321 274 357 163 321 203 l 321 828 b 428 944 321 897 357 936 l 428 1124 b 63 817 185 1117 63 1014 z m 1207 190 l 876 190 l 876 0 l 1207 0 z m 876 915 l 1207 915 l 1207 1100 l 876 1100 z m 876 481 l 1189 481 l 1189 664 l 876 664 z "},"œ":{"ha":1194,"x_min":0,"x_max":0,"o":"m 717 349 l 786 349 l 786 461 l 717 461 l 717 508 b 715 542 717 519 717 531 b 786 606 725 582 749 603 l 786 771 b 596 731 707 769 644 757 b 406 771 549 756 485 769 l 406 606 b 481 553 446 600 471 582 b 479 511 479 538 479 526 l 479 225 b 482 208 479 219 481 214 b 406 147 474 174 449 154 l 406 -18 b 596 28 489 -17 547 0 b 786 -18 644 -1 707 -17 l 786 146 b 714 218 744 151 721 175 b 717 257 715 229 717 242 z m 294 518 b 376 607 294 572 322 603 l 376 771 b 61 511 167 769 61 682 l 61 258 b 376 -18 61 79 167 -14 l 376 146 b 294 244 322 149 294 182 z m 824 349 l 1135 349 l 1135 508 b 824 769 1135 682 1036 765 l 824 606 b 903 518 881 600 903 569 l 903 461 l 824 461 z m 1135 265 l 903 265 l 903 244 b 824 147 903 188 876 156 l 824 -18 b 1135 257 1036 -8 1135 78 z "},"Š":{"ha":922,"x_min":0,"x_max":0,"o":"m 860 801 b 496 1119 860 1004 739 1110 l 496 933 b 604 801 568 922 604 878 z m 51 326 b 435 -22 51 103 179 -12 l 435 168 b 294 326 344 176 297 229 z m 868 257 b 721 511 868 356 819 440 b 364 757 718 511 465 696 b 326 829 339 775 326 799 b 433 933 326 894 350 924 l 433 1119 b 74 835 193 1113 74 1018 b 211 603 90 740 136 663 b 554 353 318 531 426 447 b 619 256 592 324 614 289 b 496 167 619 204 578 174 l 496 -22 b 868 257 744 -17 868 76 z m 556 1343 l 472 1268 l 388 1343 l 226 1343 l 388 1190 l 557 1190 l 715 1343 z "},"š":{"ha":754,"x_min":0,"x_max":0,"o":"m 696 507 b 401 769 693 678 594 765 l 401 606 b 494 507 461 600 493 567 z m 49 272 b 365 -21 51 83 157 -14 l 365 147 b 257 272 293 156 257 197 z m 706 207 b 289 550 706 435 289 456 b 371 606 289 585 317 604 l 371 771 b 79 543 176 767 79 690 b 356 301 79 425 171 361 b 496 200 449 271 496 238 b 397 146 496 164 463 146 l 397 -21 b 706 207 603 -17 706 58 z m 475 994 l 392 919 l 307 994 l 146 994 l 307 842 l 476 842 l 635 994 z "},"Ÿ":{"ha":901,"x_min":0,"x_max":0,"o":"m 624 1100 l 329 390 l 329 0 l 582 0 l 582 464 l 890 1100 z m 278 1100 l 17 1100 l 310 464 l 424 738 z m 214 1190 l 397 1190 l 397 1343 l 214 1343 z m 499 1190 l 686 1190 l 686 1343 l 499 1343 z "},"Ž":{"ha":817,"x_min":0,"x_max":0,"o":"m 85 904 l 778 904 l 778 1100 l 85 1100 z m 44 196 l 44 0 l 778 0 l 778 196 z m 354 232 l 747 871 l 467 871 l 74 232 z m 503 1343 l 419 1268 l 335 1343 l 174 1343 l 335 1190 l 504 1190 l 663 1343 z "},"ž":{"ha":682,"x_min":0,"x_max":0,"o":"m 322 197 l 604 553 l 361 553 l 76 197 z m 72 585 l 640 585 l 640 751 l 72 751 z m 42 0 l 640 0 l 640 168 l 42 168 z m 435 994 l 351 919 l 267 994 l 106 994 l 267 842 l 436 842 l 594 994 z "},"ƒ":{"ha":828,"x_min":0,"x_max":0,"o":"m 271 60 b 108 -89 251 -51 193 -89 b 13 -67 72 -89 44 -82 l 13 -193 b 118 -207 38 -203 69 -207 b 431 78 290 -207 392 -151 l 521 614 l 661 614 l 661 717 l 540 717 l 563 853 b 725 1001 581 964 640 1001 b 821 979 760 1001 790 994 l 821 1106 b 714 1119 796 1115 765 1119 b 406 836 544 1119 447 1064 l 383 717 l 265 717 l 265 614 l 365 614 z "},"ˆ":{"ha":660,"x_min":0,"x_max":0,"o":"m 246 842 l 331 915 l 414 842 l 574 842 l 414 994 l 244 994 l 85 842 z "},"ˇ":{"ha":660,"x_min":0,"x_max":0,"o":"m 414 994 l 331 919 l 246 994 l 85 994 l 246 842 l 415 842 l 574 994 z "},"˘":{"ha":569,"x_min":0,"x_max":0,"o":"m 54 994 b 283 842 54 913 122 842 b 515 994 446 842 515 913 l 364 994 b 283 943 364 963 351 943 b 206 994 215 943 206 963 z "},"˙":{"ha":329,"x_min":0,"x_max":0,"o":"m 69 842 l 257 842 l 257 994 l 69 994 z "},"˚":{"ha":374,"x_min":0,"x_max":0,"o":"m 128 860 b 189 914 128 892 156 914 b 249 860 221 914 249 892 b 189 806 249 828 221 806 b 128 860 156 806 128 828 z m 51 863 b 188 729 51 765 126 729 b 322 863 243 729 322 765 b 188 994 322 956 243 994 b 51 863 129 994 51 956 z "},"˛":{"ha":386,"x_min":0,"x_max":0,"o":"m 204 -29 b 69 -168 115 -78 69 -117 b 101 -249 69 -189 81 -217 l 340 -249 b 251 -156 279 -204 251 -179 b 356 -29 251 -122 290 -92 z "},"˜":{"ha":664,"x_min":0,"x_max":0,"o":"m 485 994 b 424 954 485 957 461 954 b 229 994 344 954 336 994 b 61 842 131 994 61 951 l 183 842 b 238 882 183 874 200 882 b 415 842 310 882 339 842 b 607 994 532 842 607 882 z "},"˝":{"ha":561,"x_min":0,"x_max":0,"o":"m 372 842 l 542 994 l 388 994 l 242 842 z m 167 842 l 339 994 l 183 994 l 38 842 z "},"Δ":{"ha":958,"x_min":0,"x_max":0,"o":"m 14 0 l 944 0 l 821 486 l 613 486 l 674 206 l 283 206 l 344 486 l 135 486 z m 439 908 l 522 908 l 589 597 l 793 597 l 664 1114 l 290 1114 l 163 597 l 369 597 z "},"Ω":{"ha":1086,"x_min":0,"x_max":0,"o":"m 1043 0 l 1043 160 l 871 160 b 1026 606 938 217 1026 357 b 547 1129 1026 921 872 1129 b 65 606 218 1129 65 921 b 219 160 65 357 150 219 l 49 160 l 49 0 l 407 0 l 407 194 b 292 560 336 253 292 365 b 544 900 292 804 383 900 b 797 560 707 900 797 800 b 683 194 797 365 751 253 l 683 0 z "},"π":{"ha":828,"x_min":0,"x_max":0,"o":"m 510 0 l 717 0 l 717 667 l 801 667 l 801 811 l 22 811 l 22 667 l 108 667 l 108 0 l 315 0 l 315 667 l 510 667 z "},"–":{"ha":933,"x_min":0,"x_max":0,"o":"m 71 388 l 856 388 l 856 500 l 71 500 z "},"—":{"ha":1583,"x_min":0,"x_max":0,"o":"m 1490 500 l 82 500 l 82 385 l 1490 385 z "},"‘":{"ha":344,"x_min":0,"x_max":0,"o":"m 293 1132 l 176 1132 l 56 963 l 56 781 l 283 781 l 283 968 l 208 968 z "},"’":{"ha":344,"x_min":0,"x_max":0,"o":"m 56 779 l 174 779 l 293 949 l 293 1131 l 65 1131 l 65 943 l 139 943 z "},"‚":{"ha":344,"x_min":0,"x_max":0,"o":"m 61 -164 l 176 -164 l 299 7 l 299 188 l 69 188 l 69 0 l 143 0 z "},"“":{"ha":607,"x_min":0,"x_max":0,"o":"m 299 1129 l 181 1129 l 61 958 l 61 778 l 289 778 l 289 965 l 214 965 z m 564 1129 l 449 1129 l 326 958 l 326 778 l 554 778 l 554 965 l 482 965 z "},"”":{"ha":607,"x_min":0,"x_max":0,"o":"m 326 779 l 444 779 l 564 949 l 564 1131 l 336 1131 l 336 943 l 411 943 z m 61 779 l 176 779 l 299 949 l 299 1131 l 69 1131 l 69 943 l 143 943 z "},"„":{"ha":607,"x_min":0,"x_max":0,"o":"m 326 -164 l 444 -164 l 564 7 l 564 188 l 336 188 l 336 0 l 411 0 z m 61 -164 l 176 -164 l 299 7 l 299 188 l 69 188 l 69 0 l 143 0 z "},"†":{"ha":793,"x_min":0,"x_max":0,"o":"m 371 -178 l 424 -178 l 489 735 l 744 821 l 488 908 l 422 1310 l 372 1310 l 307 908 l 49 821 l 306 735 z "},"‡":{"ha":799,"x_min":0,"x_max":0,"o":"m 425 1301 l 376 1301 l 311 978 l 51 925 l 49 879 l 308 801 l 308 378 l 50 315 l 50 268 l 311 204 l 376 -122 l 425 -122 l 489 204 l 750 268 l 750 315 l 493 378 l 493 800 l 750 867 l 750 911 l 489 976 z "},"•":{"ha":778,"x_min":0,"x_max":0,"o":"m 118 578 b 388 308 118 428 239 308 b 660 578 538 308 660 428 b 388 847 660 725 538 847 b 118 578 239 847 118 725 z "},"…":{"ha":1242,"x_min":0,"x_max":0,"o":"m 496 0 l 739 0 l 739 174 l 496 174 z m 893 0 l 1138 0 l 1138 174 l 893 174 z m 69 0 l 314 0 l 314 174 l 69 174 z "},"‰":{"ha":1368,"x_min":0,"x_max":0,"o":"m 1176 158 b 1139 107 1176 131 1164 114 l 1139 -22 b 1311 188 1254 -14 1311 56 l 1311 342 b 1139 538 1311 471 1235 531 l 1139 406 b 1176 364 1164 401 1176 388 z m 926 189 b 1107 -22 926 54 986 -17 l 1107 107 b 1065 158 1079 113 1065 129 l 1065 365 b 1107 406 1065 388 1079 401 l 1107 538 b 926 344 1011 531 926 474 z m 754 158 b 714 107 754 132 740 114 l 714 -22 b 889 188 831 -14 889 56 l 889 342 b 714 538 889 472 808 531 l 714 406 b 754 364 738 401 754 385 z m 53 774 b 229 561 53 639 111 568 l 229 694 b 188 744 201 701 188 718 l 188 953 b 229 990 188 974 201 986 l 229 1122 b 53 929 113 1117 53 1046 z m 300 744 b 260 694 300 715 286 699 l 260 561 b 438 769 378 568 438 638 l 438 925 b 260 1124 438 1053 365 1119 l 260 990 b 300 953 283 986 300 974 z m 504 189 b 682 -22 504 54 564 -17 l 682 107 b 640 158 654 113 640 129 l 640 365 b 682 406 640 388 654 401 l 682 538 b 504 344 588 531 504 474 z m 204 250 l 360 250 l 881 1100 l 724 1100 z "},"‹":{"ha":439,"x_min":0,"x_max":0,"o":"m 361 674 l 64 457 l 64 358 l 361 143 l 361 251 l 138 407 l 361 563 z "},"›":{"ha":439,"x_min":0,"x_max":0,"o":"m 64 563 l 285 407 l 64 251 l 64 143 l 360 358 l 360 457 l 64 674 z "},"⁄":{"ha":143,"x_min":0,"x_max":0,"o":"m -407 0 l -265 0 l 515 1125 l 374 1125 z "},"€":{"ha":896,"x_min":0,"x_max":0,"o":"m 532 600 l 581 713 l 343 713 l 343 833 b 444 943 343 899 376 935 l 444 1124 b 83 824 204 1113 83 1013 l 83 713 l 42 713 l 11 600 z m 83 386 l 83 301 b 444 -22 83 96 204 -12 l 444 156 b 343 261 376 165 343 200 l 343 386 l 440 386 l 494 510 l 44 510 l 10 386 z m 494 -22 b 865 251 725 -17 849 75 l 606 251 b 494 156 603 192 565 160 z m 494 944 b 668 919 526 940 600 935 l 746 1096 b 494 1125 657 1114 574 1124 z "},"℗":{"ha":1236,"x_min":0,"x_max":0,"o":"m 1118 561 b 625 69 1118 290 900 69 b 133 561 354 69 133 288 b 625 1051 133 829 354 1051 b 1118 561 896 1051 1118 829 z m 1197 560 b 625 1131 1197 871 938 1131 b 57 560 314 1131 57 871 b 625 -11 57 243 314 -11 b 1197 560 938 -11 1197 243 z m 425 910 l 425 210 l 583 210 l 583 910 z m 614 625 l 614 510 l 668 510 b 908 725 828 510 908 582 b 664 910 908 849 826 910 l 614 910 l 614 792 l 668 792 b 744 706 719 792 744 763 b 668 625 744 651 719 625 z "},"™":{"ha":1182,"x_min":0,"x_max":0,"o":"m 43 1100 l 43 1004 l 460 1004 l 460 1100 z m 185 517 l 319 517 l 319 958 l 185 958 z m 519 1100 l 519 517 l 646 517 l 646 1100 z m 994 1100 l 994 517 l 1121 517 l 1121 1100 z m 850 517 l 957 838 l 957 1100 l 919 1100 l 821 699 l 719 1100 l 682 1100 l 682 840 l 786 517 z "},"∂":{"ha":990,"x_min":0,"x_max":0,"o":"m 722 475 b 533 206 715 346 685 206 l 519 206 l 519 0 l 544 0 b 932 539 901 0 932 356 b 544 1114 932 796 860 1114 l 119 1114 l 119 908 l 556 908 b 722 667 682 908 711 803 l 519 667 l 519 475 z m 54 393 l 54 293 b 314 0 54 97 140 0 l 408 0 l 408 206 l 333 206 b 251 311 279 206 251 240 l 251 367 b 333 475 251 439 279 475 l 408 475 l 408 667 l 326 667 b 54 393 136 667 54 572 z "},"∏":{"ha":803,"x_min":0,"x_max":0,"o":"m 499 0 l 706 0 l 706 1114 l 97 1114 l 97 0 l 304 0 l 304 936 l 499 936 z "},"∑":{"ha":919,"x_min":0,"x_max":0,"o":"m 835 -256 l 835 -82 l 346 -82 l 633 428 l 346 936 l 835 936 l 835 1114 l 93 1114 l 93 1017 l 424 428 l 93 -162 l 93 -256 z "},"−":{"ha":672,"x_min":0,"x_max":0,"o":"m 25 617 l 25 465 l 646 465 l 646 617 z "},"√":{"ha":953,"x_min":0,"x_max":0,"o":"m 544 0 l 896 1114 l 731 1114 l 440 176 l 286 643 l 35 643 l 35 514 l 151 514 l 335 0 z "},"∞":{"ha":1063,"x_min":0,"x_max":0,"o":"m 719 706 b 538 621 633 706 572 678 b 354 706 501 678 440 706 l 329 706 b 68 475 154 706 68 629 l 68 464 l 251 464 b 346 532 254 510 285 532 l 369 532 b 467 464 432 532 464 510 l 607 464 b 704 532 610 510 642 532 l 729 532 b 822 464 789 532 819 510 l 1006 464 l 1006 475 b 744 706 1006 629 919 706 z m 329 119 l 354 119 b 538 204 440 119 501 147 b 719 119 572 147 633 119 l 744 119 b 1006 351 919 119 1006 196 l 1006 353 l 821 353 b 729 294 815 313 785 294 l 704 294 b 607 353 646 294 614 313 l 465 353 b 369 294 460 313 428 294 l 346 294 b 251 353 289 294 258 313 l 68 353 l 68 351 b 329 119 68 196 154 119 z "},"∫":{"ha":799,"x_min":0,"x_max":0,"o":"m 324 10 b 189 -133 324 -83 281 -133 b 71 -99 158 -133 103 -129 l 71 -218 b 193 -256 90 -244 150 -256 b 481 3 350 -256 481 -203 l 481 849 b 614 993 481 942 524 993 b 733 954 656 993 703 983 l 733 1076 b 610 1114 711 1103 653 1114 b 324 856 453 1114 324 1061 z "},"≈":{"ha":864,"x_min":0,"x_max":0,"o":"m 97 283 b 275 346 154 332 214 346 b 583 308 375 346 481 308 b 765 363 644 308 706 319 l 765 499 b 585 442 706 456 644 442 b 274 483 479 442 375 483 b 97 419 213 483 153 468 z m 97 586 b 275 649 154 635 214 649 b 583 611 375 649 481 611 b 765 665 644 611 706 622 l 765 801 b 585 744 706 758 644 744 b 274 786 479 744 375 786 b 97 722 213 786 153 771 z "},"≠":{"ha":864,"x_min":0,"x_max":0,"o":"m 97 339 l 281 339 l 206 118 l 329 118 l 404 339 l 765 339 l 765 489 l 456 489 l 503 631 l 765 631 l 765 781 l 554 781 l 613 950 l 488 950 l 429 781 l 97 781 l 97 631 l 379 631 l 331 489 l 97 489 z "},"≤":{"ha":697,"x_min":0,"x_max":0,"o":"m 415 863 l 13 568 l 13 436 l 415 143 l 415 290 l 114 500 l 415 714 z m -57 65 l -57 -86 l 564 -86 l 564 65 z "},"≥":{"ha":697,"x_min":0,"x_max":0,"o":"m 69 143 l 474 436 l 474 568 l 69 861 l 69 714 l 371 504 l 69 292 z m -57 65 l -57 -86 l 564 -86 l 564 65 z "},"◊":{"ha":847,"x_min":0,"x_max":0,"o":"m 424 919 l 593 613 l 768 613 l 510 1114 l 340 1114 l 71 613 l 250 613 z m 510 0 l 768 501 l 593 501 l 424 193 l 250 501 l 71 501 l 340 0 z "}}}
